<svg width="1200" height="128" viewBox="0 0 1200 128" fill="none" xmlns="http://www.w3.org/2000/svg" role="img" aria-label="Also available for Android — Scizor">
  <defs>
    <linearGradient id="bg" x1="0" y1="0" x2="900" y2="128" gradientUnits="userSpaceOnUse">
      <stop stop-color="#151A21"/><stop offset="1" stop-color="#0C1015"/>
    </linearGradient>
  </defs>
  <rect x="1" y="1" width="1198" height="126" rx="16" fill="url(#bg)" stroke="#2A303A" stroke-width="1.5"/>
  <rect x="1" y="1" width="6" height="126" rx="3" fill="#3DDC84"/>
  <rect x="34" y="34" width="60" height="60" rx="15" fill="#3DDC84" fill-opacity="0.14"/>
  <g transform="translate(46,44) scale(1.5)" fill="#5BE39B">
    <path d="M17.523 15.3414c-.5511 0-.9993-.4486-.9993-.9997s.4483-.9993.9993-.9993c.5511 0 .9993.4483.9993.9993.0001.5511-.4482.9997-.9993.9997m-11.046 0c-.5511 0-.9993-.4486-.9993-.9997s.4483-.9993.9993-.9993c.5511 0 .9993.4483.9993.9993 0 .5511-.4483.9997-.9993.9997m11.4045-6.02l1.9973-3.4592a.416.416 0 00-.1521-.5676.416.416 0 00-.5676.1521l-2.0223 3.503C15.5902 8.2439 13.8533 7.8508 12 7.8508s-3.5902.3931-5.1367 1.0989L4.841 5.4467a.4161.4161 0 00-.5677-.1521.4157.4157 0 00-.1521.5676l1.9973 3.4592C2.6889 11.1867.3432 14.6589 0 18.761h24c-.3435-4.1021-2.6892-7.5743-6.1185-9.4396"/>
  </g>
  <g font-family="-apple-system, BlinkMacSystemFont, 'Segoe UI', Roboto, Helvetica, Arial, sans-serif">
    <text x="118" y="52" fill="#5BE39B" font-size="12" font-weight="700" letter-spacing="2.5">ALSO AVAILABLE FOR ANDROID</text>
    <text x="118" y="82" fill="#FFFFFF" font-size="21" font-weight="800">Looking for the Android version? Get <tspan fill="#5BE39B">Scizor</tspan>.</text>
    <rect x="978" y="42" width="188" height="44" rx="22" fill="#3DDC84"/>
    <text x="1072" y="70" text-anchor="middle" fill="#06210F" font-size="14" font-weight="800" letter-spacing="1">VIEW SCIZOR  →</text>
  </g>
</svg>
